<svg version="1.1" xmlns="http://www.w3.org/2000/svg" viewBox="0 0 1500 1800">
  <rect x="0" y="0" width="713" height="961" fill="none" stroke="red" />
  <rect x="713" y="0" width="263" height="147" fill="none" stroke="black" />
  <rect x="976" y="0" width="221" height="14" fill="none" stroke="black" />
  <rect x="1197" y="0" width="15" height="152" fill="none" stroke="black" />
  <rect x="1212" y="0" width="242" height="96" fill="none" stroke="black" />
  <rect x="1454" y="0" width="38" height="128" fill="none" stroke="black" />
  <rect x="0" y="961" width="351" height="223" fill="none" stroke="black" />
  <rect x="351" y="961" width="150" height="182" fill="none" stroke="black" />
  <rect x="501" y="961" width="80" height="81" fill="none" stroke="black" />
  <rect x="581" y="961" width="258" height="221" fill="none" stroke="black" />
  <rect x="839" y="147" width="15" height="223" fill="none" stroke="black" />
  <rect x="854" y="147" width="262" height="36" fill="none" stroke="black" />
  <rect x="1116" y="14" width="18" height="43" fill="none" stroke="black" />
  <rect x="1134" y="152" width="138" height="110" fill="none" stroke="black" />
  <rect x="1272" y="96" width="57" height="129" fill="none" stroke="black" />
  <rect x="1329" y="96" width="96" height="124" fill="none" stroke="black" />
  <rect x="0" y="1184" width="193" height="148" fill="none" stroke="black" />
  <rect x="193" y="1184" width="100" height="160" fill="none" stroke="black" />
</svg>