<?xml version="1.0" ?><svg xmlns="http://www.w3.org/2000/svg" version="1.1" viewBox="0 0 712.999535 960.999039" width="712.999535" height="960.999039"><rect x="0" y="0" width="712.999535" height="960.999039" fill="none" stroke="red"/><g><path d="M 263.0,146.999905 L 0.0,146.999905 L 0.0,0.0 L 263.0,0.0 Z" fill="none" stroke="black"/></g><g><path d="M 220.9999999999999,160.99981300000002 L 0.0,160.99981300000002 L 0.0,146.999905 L 220.9999999999999,146.999905 Z" fill="none" stroke="black"/></g><g><path d="M 277.9999680000001,152.0 L 263.0,152.0 L 263.0,0.0 L 277.9999680000001,0.0 Z" fill="none" stroke="black"/></g><g><path d="M 242.0,256.999761 L 0.0,256.999761 L 0.0,160.999813 L 242.0,160.999813 Z" fill="none" stroke="black"/></g><g><path d="M 280.0,280.0 L 242.0,280.0 L 242.0,152.0 L 280.0,152.0 Z" fill="none" stroke="black"/></g><g><path d="M 351.0,503.000128 L 0.0,503.000128 L 0.0,280.0 L 351.0,280.0 Z" fill="none" stroke="black"/></g><g><path d="M 430.000032,279.9999999999999 L 280.0,279.9999999999999 L 280.0,98.0 L 430.000032,98.0 Z" fill="none" stroke="black"/></g><g><path d="M 357.99994200000003,98.0 L 277.999968,98.0 L 277.999968,17.0 L 357.99994200000003,17.0 Z" fill="none" stroke="black"/></g><g><path d="M 609.0,500.999961 L 351.0,500.999961 L 351.0,279.999999 L 609.0,279.999999 Z" fill="none" stroke="black"/></g><g><path d="M 445.00012699999996,279.999999 L 430.000032,279.999999 L 430.000032,56.999999 L 445.00012699999996,56.999999 Z" fill="none" stroke="black"/></g><g><path d="M 261.9999999999999,539.0002380000001 L 0.0,539.0002380000001 L 0.0,503.000128 L 261.9999999999999,503.000128 Z" fill="none" stroke="black"/></g><g><path d="M 463.0001410000001,279.999999 L 445.000126,279.999999 L 445.000126,236.999999 L 463.0001410000001,236.999999 Z" fill="none" stroke="black"/></g><g><path d="M 489.0,610.9998989999999 L 351.0,610.9998989999999 L 351.0,500.999961 L 489.0,500.999961 Z" fill="none" stroke="black"/></g><g><path d="M 520.0000810000001,279.999999 L 463.000141,279.999999 L 463.000141,150.999999 L 520.0000810000001,150.999999 Z" fill="none" stroke="black"/></g><g><path d="M 541.0001820000001,150.999999 L 445.000126,150.999999 L 445.000126,26.999999000000003 L 541.0001820000001,26.999999000000003 Z" fill="none" stroke="black"/></g><g><path d="M 193.0,687.000165 L 0.0,687.000165 L 0.0,539.000238 L 193.0,539.000238 Z" fill="none" stroke="black"/></g><g><path d="M 589.0,660.999961 L 489.0,660.999961 L 489.0,500.999961 L 589.0,500.999961 Z" fill="none" stroke="black"/></g></svg>