<?xml version="1.0" ?><svg xmlns="http://www.w3.org/2000/svg" version="1.1" viewBox="0 0 713 961" width="713" height="961"><rect x="0" y="0" width="713" height="961" fill="white" stroke="red"/><g><path d="M 138,851 L 0,851 L 0,961 L 138,961 Z" fill="yellow" stroke="black"/></g><g><path d="M 152.0,961.0 L 152.0,740.0 L 138.0,740.0 L 138.0,961.0 Z" fill="yellow" stroke="black"/></g><g><path d="M 167.0,738.0 L 152.0,738.0 L 152.0,961.0 L 167.0,961.0 Z" fill="yellow" stroke="black"/></g><g><path d="M 263.0,961.0 L 263.0,719.0 L 167.0,719.0 L 167.0,961.0 Z" fill="yellow" stroke="black"/></g><g><path d="M 278.0,809.0 L 263.0,809.0 L 263.0,961.0 L 278.0,961.0 Z" fill="yellow" stroke="black"/></g><g><path d="M 18.0,808.0 L 0.0,808.0 L 0.0,851.0 L 18.0,851.0 Z" fill="yellow" stroke="black"/></g><g><path d="M 428.0,779.0 L 278.0,779.0 L 278.0,961.0 L 428.0,961.0 Z" fill="yellow" stroke="black"/></g><g><path d="M 428.0,961.0 L 691.0,961.0 L 691.0,814.0 L 428.0,814.0 Z" fill="yellow" stroke="black"/></g><g><path d="M 621.0,666.0 L 428.0,666.0 L 428.0,814.0 L 621.0,814.0 Z" fill="yellow" stroke="black"/></g><g><path d="M 18.0,851.0 L 75.0,851.0 L 75.0,722.0 L 18.0,722.0 Z" fill="yellow" stroke="black"/></g><g><path d="M 359.0,655.0 L 263.0,655.0 L 263.0,779.0 L 359.0,779.0 Z" fill="yellow" stroke="black"/></g><g><path d="M 160.0,722.0 L 160.0,622.0 L 0.0,622.0 L 0.0,722.0 Z" fill="yellow" stroke="black"/></g><g><path d="M 75.0,851.0 L 113.0,851.0 L 113.0,723.0 L 75.0,723.0 Z" fill="yellow" stroke="black"/></g><g><path d="M 160.0,719.0 L 240.0,719.0 L 240.0,638.0 L 160.0,638.0 Z" fill="yellow" stroke="black"/></g><g><path d="M 580.0,666.0 L 580.0,408.0 L 359.0,408.0 L 359.0,666.0 Z" fill="yellow" stroke="black"/></g><g><path d="M 621.0,552.0 L 621.0,814.0 L 657.0,814.0 L 657.0,552.0 Z" fill="yellow" stroke="black"/></g><g><path d="M 0.0,622.0 L 351.0,622.0 L 351.0,399.0 L 0.0,399.0 Z" fill="yellow" stroke="black"/></g></svg>