<?xml version="1.0" ?><svg xmlns="http://www.w3.org/2000/svg" version="1.1" viewBox="0 0 713 961" width="713" height="961"><rect x="0" y="0" width="713" height="961" fill="white" stroke="red"/><g><path d="M 223,961 L 223,610 L 0,610 L 0,961 Z" fill="yellow" stroke="black"/></g><g><path d="M 485.0,925.0 L 223.0,925.0 L 223.0,961.0 L 485.0,961.0 Z" fill="yellow" stroke="black"/></g><g><path d="M 223.0,925.0 L 486.0,925.0 L 486.0,778.0 L 223.0,778.0 Z" fill="yellow" stroke="black"/></g><g><path d="M 304.0,778.0 L 304.0,698.0 L 223.0,698.0 L 223.0,778.0 Z" fill="yellow" stroke="black"/></g><g><path d="M 636.0,779.0 L 486.0,779.0 L 486.0,961.0 L 636.0,961.0 Z" fill="yellow" stroke="black"/></g><g><path d="M 546.0,682.0 L 304.0,682.0 L 304.0,778.0 L 546.0,778.0 Z" fill="yellow" stroke="black"/></g><g><path d="M 584.0,651.0 L 546.0,651.0 L 546.0,779.0 L 584.0,779.0 Z" fill="yellow" stroke="black"/></g><g><path d="M 361.0,572.0 L 223.0,572.0 L 223.0,682.0 L 361.0,682.0 Z" fill="yellow" stroke="black"/></g><g><path d="M 680.0,655.0 L 584.0,655.0 L 584.0,779.0 L 680.0,779.0 Z" fill="yellow" stroke="black"/></g><g><path d="M 619.0,430.0 L 361.0,430.0 L 361.0,651.0 L 619.0,651.0 Z" fill="yellow" stroke="black"/></g><g><path d="M 676.0,526.0 L 619.0,526.0 L 619.0,655.0 L 676.0,655.0 Z" fill="yellow" stroke="black"/></g><g><path d="M 193.0,462.0 L 0.0,462.0 L 0.0,610.0 L 193.0,610.0 Z" fill="yellow" stroke="black"/></g><g><path d="M 691.0,432.0 L 676.0,432.0 L 676.0,655.0 L 691.0,655.0 Z" fill="yellow" stroke="black"/></g><g><path d="M 293.0,412.0 L 193.0,412.0 L 193.0,572.0 L 293.0,572.0 Z" fill="yellow" stroke="black"/></g><g><path d="M 293.0,430.0 L 514.0,430.0 L 514.0,416.0 L 293.0,416.0 Z" fill="yellow" stroke="black"/></g><g><path d="M 651.0,809.0 L 636.0,809.0 L 636.0,961.0 L 651.0,961.0 Z" fill="yellow" stroke="black"/></g><g><path d="M 669.0,918.0 L 651.0,918.0 L 651.0,961.0 L 669.0,961.0 Z" fill="yellow" stroke="black"/></g></svg>