<?xml version="1.0" ?><svg xmlns="http://www.w3.org/2000/svg" version="1.1" viewBox="0 0 712.999535 960.999039" width="712.999535" height="960.999039"><rect x="0" y="0" width="712.999535" height="960.999039" fill="white" stroke="red"/><g><path d="M 263.0,813.999134 L 0.0,813.999134 L 0.0,960.999039 L 263.0,960.999039 Z" fill="yellow" stroke="black"/></g><g><path d="M 483.9999999999999,946.999131 L 263.0,946.999131 L 263.0,960.999039 L 483.9999999999999,960.999039 Z" fill="yellow" stroke="black"/></g><g><path d="M 498.9999670000001,808.999039 L 483.999999,808.999039 L 483.999999,960.999039 L 498.9999670000001,960.999039 Z" fill="yellow" stroke="black"/></g><g><path d="M 242.0,717.999186 L 0.0,717.999186 L 0.0,813.999134 L 242.0,813.999134 Z" fill="yellow" stroke="black"/></g><g><path d="M 301.0,818.999131 L 263.0,818.999131 L 263.0,946.999131 L 301.0,946.999131 Z" fill="yellow" stroke="black"/></g><g><path d="M 593.0,585.998911 L 242.0,585.998911 L 242.0,808.999039 L 593.0,808.999039 Z" fill="yellow" stroke="black"/></g><g><path d="M 150.00003199999998,535.9991860000001 L 0.0,535.9991860000001 L 0.0,717.999186 L 150.00003199999998,717.999186 Z" fill="yellow" stroke="black"/></g><g><path d="M 578.999941,879.999039 L 498.999967,879.999039 L 498.999967,960.999039 L 578.999941,960.999039 Z" fill="yellow" stroke="black"/></g><g><path d="M 408.00003100000004,364.99894900000004 L 150.00003100000004,364.99894900000004 L 150.00003100000004,585.998911 L 408.00003100000004,585.998911 Z" fill="yellow" stroke="black"/></g><g><path d="M 608.000095,737.999039 L 593.0,737.999039 L 593.0,960.999039 L 608.000095,960.999039 Z" fill="yellow" stroke="black"/></g><g><path d="M 670.0000309999998,549.998801 L 408.000031,549.998801 L 408.000031,585.998911 L 670.0000309999998,585.998911 Z" fill="yellow" stroke="black"/></g><g><path d="M 626.0001100000001,917.999039 L 608.000095,917.999039 L 608.000095,960.999039 L 626.0001100000001,960.999039 Z" fill="yellow" stroke="black"/></g><g><path d="M 439.0,836.9991930000001 L 301.0,836.9991930000001 L 301.0,946.999131 L 439.0,946.999131 Z" fill="yellow" stroke="black"/></g><g><path d="M 665.0000350000001,788.999039 L 608.000095,788.999039 L 608.000095,917.999039 L 665.0000350000001,917.999039 Z" fill="yellow" stroke="black"/></g><g><path d="M 504.0000870000001,425.99880099999996 L 408.00003100000004,425.99880099999996 L 408.00003100000004,549.998801 L 504.0000870000001,549.998801 Z" fill="yellow" stroke="black"/></g><g><path d="M 697.000087,401.9988739999999 L 504.000087,401.9988739999999 L 504.000087,549.998801 L 697.000087,549.998801 Z" fill="yellow" stroke="black"/></g><g><path d="M 100.0,375.9991870000001 L 0.0,375.9991870000001 L 0.0,535.9991870000001 L 100.0,535.9991870000001 Z" fill="yellow" stroke="black"/></g></svg>