<?xml version="1.0" ?><svg xmlns="http://www.w3.org/2000/svg" version="1.1" viewBox="0 0 713 961" width="713" height="961"><rect x="0" y="0" width="713" height="961" fill="white" stroke="red"/><g><path d="M 0,698 L 0,961 L 147,961 L 147,698 Z" fill="yellow" stroke="black"/></g><g><path d="M 243.0,837.0 L 147.0,837.0 L 147.0,961.0 L 243.0,961.0 Z" fill="yellow" stroke="black"/></g><g><path d="M 243.0,961.0 L 594.0,961.0 L 594.0,738.0 L 243.0,738.0 Z" fill="yellow" stroke="black"/></g><g><path d="M 227.0,756.0 L 147.0,756.0 L 147.0,837.0 L 227.0,837.0 Z" fill="yellow" stroke="black"/></g><g><path d="M 147.0,700.0 L 147.0,738.0 L 275.0,738.0 L 275.0,700.0 Z" fill="yellow" stroke="black"/></g><g><path d="M 517.0,642.0 L 275.0,642.0 L 275.0,738.0 L 517.0,738.0 Z" fill="yellow" stroke="black"/></g><g><path d="M 517.0,738.0 L 710.0,738.0 L 710.0,590.0 L 517.0,590.0 Z" fill="yellow" stroke="black"/></g><g><path d="M 609.0,809.0 L 594.0,809.0 L 594.0,961.0 L 609.0,961.0 Z" fill="yellow" stroke="black"/></g><g><path d="M 147.0,438.0 L 147.0,700.0 L 183.0,700.0 L 183.0,438.0 Z" fill="yellow" stroke="black"/></g><g><path d="M 652.0,961.0 L 652.0,943.0 L 609.0,943.0 L 609.0,961.0 Z" fill="yellow" stroke="black"/></g><g><path d="M 666.0,961.0 L 666.0,740.0 L 652.0,740.0 L 652.0,961.0 Z" fill="yellow" stroke="black"/></g><g><path d="M 441.0,421.0 L 183.0,421.0 L 183.0,642.0 L 441.0,642.0 Z" fill="yellow" stroke="black"/></g><g><path d="M 138.0,588.0 L 0.0,588.0 L 0.0,698.0 L 138.0,698.0 Z" fill="yellow" stroke="black"/></g><g><path d="M 498.0,513.0 L 441.0,513.0 L 441.0,642.0 L 498.0,642.0 Z" fill="yellow" stroke="black"/></g><g><path d="M 498.0,440.0 L 498.0,590.0 L 680.0,590.0 L 680.0,440.0 Z" fill="yellow" stroke="black"/></g><g><path d="M 100.0,428.0 L 0.0,428.0 L 0.0,588.0 L 100.0,588.0 Z" fill="yellow" stroke="black"/></g><g><path d="M 664.0,440.0 L 664.0,425.0 L 441.0,425.0 L 441.0,440.0 Z" fill="yellow" stroke="black"/></g></svg>