<?xml version="1.0" ?><svg xmlns="http://www.w3.org/2000/svg" version="1.1" viewBox="0 0 713 961" width="713" height="961"><rect x="0" y="0" width="713" height="961" fill="white" stroke="red"/><g><path d="M 150,779 L 0,779 L 0,961 L 150,961 Z" fill="yellow" stroke="black"/></g><g><path d="M 150.0,719.0 L 150.0,961.0 L 246.0,961.0 L 246.0,719.0 Z" fill="yellow" stroke="black"/></g><g><path d="M 597.0,738.0 L 246.0,738.0 L 246.0,961.0 L 597.0,961.0 Z" fill="yellow" stroke="black"/></g><g><path d="M 504.0,517.0 L 246.0,517.0 L 246.0,738.0 L 504.0,738.0 Z" fill="yellow" stroke="black"/></g><g><path d="M 263.0,370.0 L 0.0,370.0 L 0.0,517.0 L 263.0,517.0 Z" fill="yellow" stroke="black"/></g><g><path d="M 193.0,571.0 L 0.0,571.0 L 0.0,719.0 L 193.0,719.0 Z" fill="yellow" stroke="black"/></g><g><path d="M 604.0,578.0 L 504.0,578.0 L 504.0,738.0 L 604.0,738.0 Z" fill="yellow" stroke="black"/></g><g><path d="M 401.0,407.0 L 263.0,407.0 L 263.0,517.0 L 401.0,517.0 Z" fill="yellow" stroke="black"/></g><g><path d="M 600.0,454.0 L 504.0,454.0 L 504.0,578.0 L 600.0,578.0 Z" fill="yellow" stroke="black"/></g><g><path d="M 525.0,371.0 L 263.0,371.0 L 263.0,407.0 L 525.0,407.0 Z" fill="yellow" stroke="black"/></g><g><path d="M 654.0,832.0 L 597.0,832.0 L 597.0,961.0 L 654.0,961.0 Z" fill="yellow" stroke="black"/></g><g><path d="M 481.0,436.0 L 401.0,436.0 L 401.0,517.0 L 481.0,517.0 Z" fill="yellow" stroke="black"/></g><g><path d="M 642.0,704.0 L 604.0,704.0 L 604.0,832.0 L 642.0,832.0 Z" fill="yellow" stroke="black"/></g><g><path d="M 619.0,481.0 L 604.0,481.0 L 604.0,704.0 L 619.0,704.0 Z" fill="yellow" stroke="black"/></g><g><path d="M 221.0,557.0 L 0.0,557.0 L 0.0,571.0 L 221.0,571.0 Z" fill="yellow" stroke="black"/></g><g><path d="M 236.0,567.0 L 221.0,567.0 L 221.0,719.0 L 236.0,719.0 Z" fill="yellow" stroke="black"/></g><g><path d="M 18.0,736.0 L 0.0,736.0 L 0.0,779.0 L 18.0,779.0 Z" fill="yellow" stroke="black"/></g></svg>