<?xml version="1.0" ?><svg xmlns="http://www.w3.org/2000/svg" version="1.1" viewBox="0 0 713 961" width="713" height="961"><rect x="0" y="0" width="713" height="961" fill="white" stroke="red"/><g><path d="M 242,865 L 0,865 L 0,961 L 242,961 Z" fill="yellow" stroke="black"/></g><g><path d="M 242.0,861.0 L 242.0,961.0 L 402.0,961.0 L 402.0,861.0 Z" fill="yellow" stroke="black"/></g><g><path d="M 402.0,961.0 L 417.0,961.0 L 417.0,809.0 L 402.0,809.0 Z" fill="yellow" stroke="black"/></g><g><path d="M 417.0,703.0 L 417.0,961.0 L 638.0,961.0 L 638.0,703.0 Z" fill="yellow" stroke="black"/></g><g><path d="M 57.0,736.0 L 0.0,736.0 L 0.0,865.0 L 57.0,865.0 Z" fill="yellow" stroke="black"/></g><g><path d="M 280.0,861.0 L 280.0,510.0 L 57.0,510.0 L 57.0,861.0 Z" fill="yellow" stroke="black"/></g><g><path d="M 543.0,556.0 L 280.0,556.0 L 280.0,703.0 L 543.0,703.0 Z" fill="yellow" stroke="black"/></g><g><path d="M 15.0,513.0 L 0.0,513.0 L 0.0,736.0 L 15.0,736.0 Z" fill="yellow" stroke="black"/></g><g><path d="M 473.0,408.0 L 280.0,408.0 L 280.0,556.0 L 473.0,556.0 Z" fill="yellow" stroke="black"/></g><g><path d="M 693.0,521.0 L 543.0,521.0 L 543.0,703.0 L 693.0,703.0 Z" fill="yellow" stroke="black"/></g><g><path d="M 473.0,521.0 L 611.0,521.0 L 611.0,411.0 L 473.0,411.0 Z" fill="yellow" stroke="black"/></g><g><path d="M 360.0,780.0 L 280.0,780.0 L 280.0,861.0 L 360.0,861.0 Z" fill="yellow" stroke="black"/></g><g><path d="M 262.0,474.0 L 0.0,474.0 L 0.0,510.0 L 262.0,510.0 Z" fill="yellow" stroke="black"/></g><g><path d="M 707.0,397.0 L 611.0,397.0 L 611.0,521.0 L 707.0,521.0 Z" fill="yellow" stroke="black"/></g><g><path d="M 676.0,833.0 L 638.0,833.0 L 638.0,961.0 L 676.0,961.0 Z" fill="yellow" stroke="black"/></g><g><path d="M 221.0,460.0 L 0.0,460.0 L 0.0,474.0 L 221.0,474.0 Z" fill="yellow" stroke="black"/></g><g><path d="M 694.0,918.0 L 676.0,918.0 L 676.0,961.0 L 694.0,961.0 Z" fill="yellow" stroke="black"/></g></svg>